<svg width="1600" height="1100" viewBox="0 0 1600 1100" fill="none" xmlns="http://www.w3.org/2000/svg">
  <rect width="1600" height="1100" fill="#EEF1E4" />
  <rect y="704" width="1600" height="396" fill="#E1D0B2" />
  <circle cx="1268" cy="162" r="88" fill="#F1C2C2" />
  <path d="M0 760L254 610L482 694L714 542L934 646L1162 486L1386 584L1600 452V1100H0V760Z" fill="#BCD5B3" />
  <path d="M0 852L248 704L484 792L706 640L934 756L1164 594L1402 706L1600 584V1100H0V852Z" fill="#6AA086" />
  <path d="M872 314H1162V704H872V314Z" fill="#6C4A3A" />
  <path d="M914 356H1122V612H914V356Z" fill="#EAD7C0" />
  <path d="M976 356V612" stroke="#6C4A3A" stroke-width="12" />
  <path d="M1060 356V612" stroke="#6C4A3A" stroke-width="12" />
  <path d="M914 438H1122" stroke="#6C4A3A" stroke-width="12" />
  <path d="M914 524H1122" stroke="#6C4A3A" stroke-width="12" />
  <path d="M312 932C452 852 560 814 670 814C770 814 898 850 1034 920" stroke="#F7F2E9" stroke-width="22" />
  <path d="M124 1100C254 968 386 900 524 900C684 900 820 988 956 1072L124 1100Z" fill="#D1B88F" />
  <circle cx="416" cy="364" r="74" fill="#E7A9B1" />
  <circle cx="534" cy="310" r="56" fill="#EAB8BE" />
  <circle cx="314" cy="292" r="48" fill="#E9B3B8" />
</svg>
